{"title":"The Bugs Bunny/Road-Runner Movie (1979) DVD RIP","uid":9657715,"size":1818047760,"categoryP":"video","categoryS":"movies","magnet":"?xt=urn:btih:6f12b03f704ab25f7f500fca0c43ebe285aa1da7&amp;dn=+The+Bugs+Bunny%2FRoad-Runner+Movie+%281979%29+DVD+RIP&amp;tr=udp%3A%2F%2Ftracker.openbittorrent.com%3A80&amp;tr=udp%3A%2F%2Fopen.demonii.com%3A1337&amp;tr=udp%3A%2F%2Ftracker.coppersurfer.tk%3A6969&amp;tr=udp%3A%2F%2Fexodus.desync.com%3A6969","seeders":18,"leechers":6,"uploader":"jmanwf","files":-1,"time":1393221207,"description":"Storyline\n\nThe Bugs Bunny/Road Runner Movie is basically a collection of Warner Bros. short cartoon features, &quot;starring&quot; the likes of Daffy Duck, Porky Pig and Wile.E.Coyote. These animations are interspersed by Bugs Bunny reminiscing on past events and providing links between the individual animations which are otherwise unconnected. The Road Runner feature at the end consists of sketches from various RR separates (well it does in the 78-minute version \n\n\n &lt;a href=&quot;\nhttp://www.imdb.com/title/tt0078915/&quot; rel=&quot;nofollow&quot; target=&quot;_NEW&quot;&gt;\nhttp://www.imdb.com/title/tt0078915/&lt;/a&gt;\n\n\n\nFormat                                   : MPEG-4\nFormat profile                           : Base Media / Version 2\nCodec ID                                 : mp42\nFile size                                : 1.69 GiB\nDuration                                 : 1h 37mn\nOverall bit rate mode                    : Variable\nOverall bit rate                         : 2 475 Kbps\nMovie name                               : The Bugs Bunny/Road Runner Movie\nPerformer                                : Chuck Jones\nGenre                                    : Kids &amp; Family\n\nRecorded date                            : UTC 2008-08-25 07:00:00\nEncoded date                             : UTC 2014-02-23 07:38:12\nTagged date                              : UTC 2014-02-23 09:33:34\nWriting application                      : HandBrake 0.9.9 2013052900\nCover                                    : Yes\n\nVideo\nID                                       : 1\nFormat                                   : AVC\nFormat/Info                              : Advanced Video Codec\nFormat profile                           : &lt;a class=&quot;__cf_email__&quot; href=&quot;/cdn-cgi/l/email-protection&quot; data-cfemail=&quot;307d51595e707c041e00&quot;&gt;[email&amp;#160;protected]&lt;/a&gt;&lt;script cf-hash='f9e31' type=&quot;text/javascript&quot;&gt;\n/* &lt;![CDATA[ */!function(){try{var t=&quot;currentScript&quot;in document?document.currentScript:function(){for(var t=document.getElementsByTagName(&quot;script&quot;),e=t.length;e--;)if(t[e].getAttribute(&quot;cf-hash&quot;))return t[e]}();if(t&amp;&amp;t.previousSibling){var e,r,n,i,c=t.previousSibling,a=c.getAttribute(&quot;data-cfemail&quot;);if(a){for(e=&quot;&quot;,r=parseInt(a.substr(0,2),16),n=2;a.length-n;n+=2)i=parseInt(a.substr(n,2),16)^r,e+=String.fromCharCode(i);e=document.createTextNode(e),c.parentNode.replaceChild(e,c)}}}catch(u){}}();/* ]]&gt; */&lt;/script&gt;\nFormat settings, CABAC                   : Yes\nFormat settings, ReFrames                : 5 frames\nCodec ID                                 : avc1\nCodec ID/Info                            : Advanced Video Coding\nDuration                                 : 1h 37mn\nBit rate                                 : 2 366 Kbps\nWidth                                    : 848 pixels\nHeight                                   : 624 pixels\nDisplay aspect ratio                     : 4:3\nFrame rate mode                          : Variable\nFrame rate                               : 23.976 fps\nMinimum frame rate                       : 23.974 fps\nMaximum frame rate                       : 23.981 fps\nColor space                              : YUV\nChroma subsampling                       : 4:2:0\nBit depth                                : 8 bits\nScan type                                : Progressive\nBits/(Pixel*Frame)                       : 0.186\nStream size                              : 1.62 GiB (96%)\nWriting library                          : x264 core 130 r2273 b3065e6\nEncoding settings                        : cabac=1 / ref=5 / deblock=1:0:0 / \nEncoded date                             : UTC 2014-02-23 07:38:12\nTagged date                              : UTC 2014-02-23 09:33:34\nColor primaries                          : BT.709\nTransfer characteristics                 : BT.709\nMatrix coefficients                      : BT.709\n\nAudio\nID                                       : 2\nFormat                                   : AAC\nFormat/Info                              : Advanced Audio Codec\nFormat profile                           : LC\nCodec ID                                 : 40\nDuration                                 : 1h 37mn\nBit rate mode                            : Variable\nBit rate                                 : 104 Kbps\nMaximum bit rate                         : 123 Kbps\nChannel(s)                               : 2 channels\nChannel positions                        : Front: L R\nSampling rate                            : 44.1 KHz\nCompression mode                         : Lossy\nStream size                              : 72.7 MiB (4%)\nLanguage                                 : English\nEncoded date                             : UTC 2014-02-23 07:38:12\nTagged date                              : UTC 2014-02-23 09:33:33","torrent":{"xt":"urn:btih:6f12b03f704ab25f7f500fca0c43ebe285aa1da7","amp;dn":"+The+Bugs+Bunny%2FRoad-Runner+Movie+%281979%29+DVD+RIP","amp;tr":["udp%3A%2F%2Ftracker.openbittorrent.com%3A80","udp%3A%2F%2Fopen.demonii.com%3A1337","udp%3A%2F%2Ftracker.coppersurfer.tk%3A6969","udp%3A%2F%2Fexodus.desync.com%3A6969"],"infoHash":"6f12b03f704ab25f7f500fca0c43ebe285aa1da7","infoHashBuffer":{"type":"Buffer","data":[111,18,176,63,112,74,178,95,127,80,15,202,12,67,235,226,133,170,29,167]},"announce":[],"urlList":[]}}